<?xml version="1.0" encoding="UTF-8"?>
<svg id="Layer_2" data-name="Layer 2" xmlns="http://www.w3.org/2000/svg" xmlns:xlink="http://www.w3.org/1999/xlink" viewBox="0 0 760 1091">
  <defs>
    <style>
      .cls-1 {
        fill: #6c5cd6;
        filter: url(#drop-shadow-1);
      }

      .cls-2 {
        fill: #6f5ccf;
        filter: url(#drop-shadow-2);
      }
    </style>
    <filter id="drop-shadow-1" x="0" y="0" width="760" height="1088" filterUnits="userSpaceOnUse">
      <feOffset dx="14.92" dy="14.92"/>
      <feGaussianBlur result="blur" stdDeviation="14.92"/>
      <feFlood flood-color="#000" flood-opacity=".2"/>
      <feComposite in2="blur" operator="in"/>
      <feComposite in="SourceGraphic"/>
    </filter>
    <filter id="drop-shadow-2" x="25" y="631" width="732" height="460" filterUnits="userSpaceOnUse">
      <feOffset dx="14.92" dy="14.92"/>
      <feGaussianBlur result="blur-2" stdDeviation="14.92"/>
      <feFlood flood-color="#000" flood-opacity=".2"/>
      <feComposite in2="blur-2" operator="in"/>
      <feComposite in="SourceGraphic"/>
    </filter>
  </defs>
  <g id="Layer_3" data-name="Layer 3">
    <g>
      <path class="cls-1" d="M699.81,610.21c0,11.38-15.95,58.76-55.73,82.44-39.8,23.69-582.75,334.49-582.75,334.49l-4.05-215.99s5.01-51.23,36.26-75.86c31.28-24.65,333.55-196.99,333.55-196.99,0,0,.43-.28,1.24-.79-149.3-83.08-324.44-181.54-350.92-200.6-47.35-34.11-47.35-113.7-47.35-132.65V30.08s279.16,156,459.99,261.96c.17.11.36.21.53.3,54.56,30.32,154.23,85.92,161.07,91.42,9.49,7.59,39.02,30.32,43.6,72.96,4.56,42.64,4.56,142.14,4.56,153.5Z"/>
      <path class="cls-2" d="M307.39,886.19l-246.06,140.94s-9.51-134.76-4.98-211.37c1.42-24.07,8.35-38.04,12.09-45.9,4.74-9.95,12.69-23.48,25.1-34.57,37.22-33.26,101.23-64.43,132.5-70.12,41.69-7.58,136.45-7.58,195.19,30.32,58.75,37.9,274.79,333.53,274.79,333.53,0,0-221.93,4.15-250.15-1.9-26.53-5.69-41.93-17.19-78.08-58.27-17.48-19.86-41.87-50.53-60.4-82.67Z"/>
    </g>
  </g>
</svg>